<svg width="20" height="20" viewBox="0 0 20 20" fill="none" xmlns="http://www.w3.org/2000/svg">
<path opacity="0.4" d="M13.4917 1.66675H6.51671C3.48338 1.66675 1.67505 3.47508 1.67505 6.50841V13.4834C1.67505 16.5167 3.48338 18.3251 6.51671 18.3251H13.4917C16.525 18.3251 18.3334 16.5167 18.3334 13.4834V6.50841C18.3334 3.47508 16.525 1.66675 13.4917 1.66675Z" fill="#56AB91"/>
<path d="M15.8333 12.5001H15.625V12.0834V11.6667V9.16675V6.45841C15.625 5.19175 14.6 4.16675 13.3333 4.16675H6.66663C5.39996 4.16675 4.37496 5.19175 4.37496 6.45841V9.16675V11.6667V12.0834V12.5001H4.16663C3.82496 12.5001 3.54163 12.7834 3.54163 13.1251C3.54163 13.4667 3.82496 13.7501 4.16663 13.7501H4.99996H7.36665C7.64998 14.9417 8.72496 15.8334 9.99996 15.8334C11.275 15.8334 12.3499 14.9417 12.6333 13.7501H15H15.8333C16.175 13.7501 16.4583 13.4667 16.4583 13.1251C16.4583 12.7834 16.175 12.5001 15.8333 12.5001ZM13.9916 9.90008C13.9416 9.88341 13.8916 9.86675 13.8333 9.85008C13.6666 9.81675 13.5 9.79175 13.325 9.79175H6.65828C6.48328 9.79175 6.31663 9.81675 6.14996 9.85008C6.09996 9.85841 6.04996 9.88341 5.99163 9.90008C5.88329 9.93341 5.77496 9.96675 5.67496 10.0167C5.64996 10.0251 5.62494 10.0334 5.60828 10.0418V9.16675C5.60828 8.59175 6.07494 8.12508 6.64994 8.12508H13.3166C13.8916 8.12508 14.3583 8.59175 14.3583 9.16675V10.0418C14.3333 10.0334 14.3166 10.0251 14.2916 10.0167C14.2083 9.96675 14.0999 9.93341 13.9916 9.90008ZM6.66663 5.41675H13.3333C13.9083 5.41675 14.375 5.88341 14.375 6.45841V7.13341C14.0583 6.97508 13.7083 6.87508 13.3333 6.87508H6.66663C6.29163 6.87508 5.94163 6.97508 5.62496 7.13341V6.45841C5.62496 5.88341 6.09163 5.41675 6.66663 5.41675ZM12.0833 12.5001C11.7416 12.5001 11.4583 12.7834 11.4583 13.1251C11.4583 13.9251 10.8 14.5834 9.99996 14.5834C9.19996 14.5834 8.54163 13.9251 8.54163 13.1251C8.54163 12.7834 8.25829 12.5001 7.91663 12.5001H5.62496V12.0834C5.62496 11.5084 6.09163 11.0417 6.66663 11.0417H13.3333C13.9083 11.0417 14.375 11.5084 14.375 12.0834V12.5001H12.0833Z" fill="#56AB91"/>
</svg>
