<svg xmlns="http://www.w3.org/2000/svg" width="48" height="48" viewBox="0 0 48 48" fill="none">
<circle cx="24" cy="24" r="24" transform="matrix(1 0 0 -1 0 48)" fill="white"/>
<path d="M24.5756 15.816H21.1465V22.5766H26.5414V25.4072H21.1465V32.1672H24.7436C25.6678 32.1672 32.3314 32.2716 32.3211 24.302C32.3108 16.3323 25.8582 15.816 24.5756 15.816Z" fill="#C2A633"/>
<path d="M24 0C10.745 0 0 10.745 0 24C0 37.255 10.745 48 24 48C37.255 48 48 37.255 48 24C48 10.745 37.255 0 24 0ZM24.943 36.9624H16.2514V25.4074H13.1875V22.5768H16.2511V11.021H23.7108C25.4755 11.021 37.1642 10.6546 37.1642 24.2086C37.1642 37.9867 24.9432 36.9624 24.9432 36.9624H24.943Z" fill="#C2A633"/>
</svg>