<svg xmlns="http://www.w3.org/2000/svg" width="33" height="33" viewBox="0 0 33 33" fill="none">
<path d="M16.5003 29.8334C23.8641 29.8334 29.8337 23.8639 29.8337 16.5001C29.8337 9.13628 23.8641 3.16675 16.5003 3.16675C9.13653 3.16675 3.16699 9.13628 3.16699 16.5001C3.16699 23.8639 9.13653 29.8334 16.5003 29.8334Z" stroke="white" stroke-width="1.5" stroke-linecap="round" stroke-linejoin="round"/>
<path d="M11.1665 4.5H12.4998C9.8998 12.2867 9.8998 20.7133 12.4998 28.5H11.1665" stroke="white" stroke-width="1.5" stroke-linecap="round" stroke-linejoin="round"/>
<path d="M20.5 4.5C23.1 12.2867 23.1 20.7133 20.5 28.5" stroke="white" stroke-width="1.5" stroke-linecap="round" stroke-linejoin="round"/>
<path d="M4.5 21.8333V20.5C12.2867 23.1 20.7133 23.1 28.5 20.5V21.8333" stroke="white" stroke-width="1.5" stroke-linecap="round" stroke-linejoin="round"/>
<path d="M4.5 12.5C12.2867 9.90005 20.7133 9.90005 28.5 12.5" stroke="white" stroke-width="1.5" stroke-linecap="round" stroke-linejoin="round"/>
</svg>