<svg width="20" height="20" viewBox="0 0 20 20" fill="none" xmlns="http://www.w3.org/2000/svg">
<path d="M13.3333 6.66675H6.66663V13.3334H13.3333V6.66675Z" fill="#56AB91"/>
<path opacity="0.4" d="M4.16663 18.3333C5.54163 18.3333 6.66663 17.2083 6.66663 15.8333V13.3333H4.16663C2.79163 13.3333 1.66663 14.4583 1.66663 15.8333C1.66663 17.2083 2.79163 18.3333 4.16663 18.3333Z" fill="#56AB91"/>
<path opacity="0.4" d="M4.16663 6.66675H6.66663V4.16675C6.66663 2.79175 5.54163 1.66675 4.16663 1.66675C2.79163 1.66675 1.66663 2.79175 1.66663 4.16675C1.66663 5.54175 2.79163 6.66675 4.16663 6.66675Z" fill="#56AB91"/>
<path opacity="0.4" d="M13.3334 6.66675H15.8334C17.2084 6.66675 18.3334 5.54175 18.3334 4.16675C18.3334 2.79175 17.2084 1.66675 15.8334 1.66675C14.4584 1.66675 13.3334 2.79175 13.3334 4.16675V6.66675Z" fill="#56AB91"/>
<path opacity="0.4" d="M15.8334 18.3333C17.2084 18.3333 18.3334 17.2083 18.3334 15.8333C18.3334 14.4583 17.2084 13.3333 15.8334 13.3333H13.3334V15.8333C13.3334 17.2083 14.4584 18.3333 15.8334 18.3333Z" fill="#56AB91"/>
</svg>
