<svg width="20" height="20" viewBox="0 0 20 20" fill="none" xmlns="http://www.w3.org/2000/svg">
<path opacity="0.4" d="M9.99996 18.3334C14.6023 18.3334 18.3333 14.6025 18.3333 10.0001C18.3333 5.39771 14.6023 1.66675 9.99996 1.66675C5.39759 1.66675 1.66663 5.39771 1.66663 10.0001C1.66663 14.6025 5.39759 18.3334 9.99996 18.3334Z" fill="#56AB91"/>
<path d="M10 11.4584C10.3417 11.4584 10.625 11.1751 10.625 10.8334V6.66675C10.625 6.32508 10.3417 6.04175 10 6.04175C9.65833 6.04175 9.375 6.32508 9.375 6.66675V10.8334C9.375 11.1751 9.65833 11.4584 10 11.4584Z" fill="#56AB91"/>
<path d="M10.7666 13.0167C10.725 12.9167 10.6666 12.825 10.5916 12.7417C10.5083 12.6667 10.4166 12.6083 10.3166 12.5667C10.1166 12.4833 9.88329 12.4833 9.68329 12.5667C9.58329 12.6083 9.49163 12.6667 9.40829 12.7417C9.33329 12.825 9.27496 12.9167 9.23329 13.0167C9.19163 13.1167 9.16663 13.225 9.16663 13.3333C9.16663 13.4417 9.19163 13.55 9.23329 13.65C9.27496 13.7583 9.33329 13.8417 9.40829 13.925C9.49163 14 9.58329 14.0583 9.68329 14.1C9.78329 14.1417 9.89163 14.1667 9.99996 14.1667C10.1083 14.1667 10.2166 14.1417 10.3166 14.1C10.4166 14.0583 10.5083 14 10.5916 13.925C10.6666 13.8417 10.725 13.7583 10.7666 13.65C10.8083 13.55 10.8333 13.4417 10.8333 13.3333C10.8333 13.225 10.8083 13.1167 10.7666 13.0167Z" fill="#56AB91"/>
</svg>
